<svg xmlns="http://www.w3.org/2000/svg" width="903.402" height="487.505" viewBox="0 0 903.402 487.505">
  <g id="Group_2" data-name="Group 2" transform="translate(0 -0.04)">
    <path id="Path_3" data-name="Path 3" d="M931.4,454.246a143.659,143.659,0,0,1-5.409,39.168,142.194,142.194,0,0,1-15.217,34.967c0,39.563-26.707,73.757-65.473,90.024a132.113,132.113,0,0,1-51.116,10.108H199.5c-31.785,0-61.24-8.576-85.4-23.185A146.694,146.694,0,0,1,94.492,591.2C67.642,568.127,51,536.239,51,501.019a142.958,142.958,0,0,1,60.356-207.7,137.808,137.808,0,0,1,20.145-7.2q3.656-.995,7.391-1.785a138.5,138.5,0,0,1,20.145-2.764q3.672-.229,7.384-.261h1.358c2.732,0,5.441.095,8.134.253l.884-1.5q1.627-2.716,3.332-5.378,3.08-4.849,6.46-9.555,3.538-4.967,7.384-9.776l.655-.79q2.18-2.717,4.454-5.37,7.107-8.284,15-16.07c56.944-55.815,146.155-91.746,246.445-91.746,78.037,0,149.369,21.756,204.008,57.7A137.547,137.547,0,0,1,732.4,181.243c77.184,0,139.774,63.467,139.774,141.757a146.053,146.053,0,0,1-.79,14.83A142.144,142.144,0,0,1,931.4,454.246Z" transform="translate(-28 -141.34)" fill="#6c63ff" opacity="0.1"/>
    <path id="Path_4" data-name="Path 4" d="M259.664,257.52v16.07h-15Q251.712,265.314,259.664,257.52Z" transform="translate(-73.567 -165.766)" fill="#6c63ff" opacity="0.2"/>
    <rect id="Rectangle_5" data-name="Rectangle 5" width="20.145" height="20.145" transform="translate(193.489 87.679)" fill="#6c63ff" opacity="0.2"/>
    <rect id="Rectangle_6" data-name="Rectangle 6" width="20.145" height="20.145" transform="translate(221.017 87.679)" fill="#6c63ff" opacity="0.2"/>
    <rect id="Rectangle_7" data-name="Rectangle 7" width="20.145" height="20.145" transform="translate(248.554 87.679)" fill="#6c63ff" opacity="0.2"/>
    <rect id="Rectangle_8" data-name="Rectangle 8" width="20.145" height="20.145" transform="translate(276.082 87.679)" fill="#6c63ff" opacity="0.2"/>
    <rect id="Rectangle_9" data-name="Rectangle 9" width="20.145" height="20.145" transform="translate(303.619 87.679)" fill="#6c63ff" opacity="0.2"/>
    <rect id="Rectangle_10" data-name="Rectangle 10" width="20.145" height="20.145" transform="translate(331.155 87.679)" fill="#6c63ff"/>
    <rect id="Rectangle_11" data-name="Rectangle 11" width="20.145" height="20.145" transform="translate(358.683 87.679)" fill="#6c63ff" opacity="0.2"/>
    <rect id="Rectangle_12" data-name="Rectangle 12" width="20.145" height="20.145" transform="translate(386.22 87.679)" fill="#6c63ff" opacity="0.2"/>
    <rect id="Rectangle_13" data-name="Rectangle 13" width="20.145" height="20.145" transform="translate(413.748 87.679)" fill="#6c63ff" opacity="0.2"/>
    <rect id="Rectangle_14" data-name="Rectangle 14" width="20.145" height="20.145" transform="translate(441.285 87.679)" fill="#6c63ff"/>
    <rect id="Rectangle_15" data-name="Rectangle 15" width="20.145" height="20.145" transform="translate(468.821 87.679)" fill="#6c63ff" opacity="0.2"/>
    <rect id="Rectangle_16" data-name="Rectangle 16" width="20.145" height="20.145" transform="translate(496.349 87.679)" fill="#6c63ff" opacity="0.2"/>
    <rect id="Rectangle_17" data-name="Rectangle 17" width="20.145" height="20.145" transform="translate(523.886 87.679)" fill="#6c63ff" opacity="0.2"/>
    <rect id="Rectangle_18" data-name="Rectangle 18" width="20.145" height="20.145" transform="translate(551.422 87.679)" fill="#6c63ff" opacity="0.2"/>
    <rect id="Rectangle_19" data-name="Rectangle 19" width="20.145" height="20.145" transform="translate(578.951 87.679)" fill="#6c63ff" opacity="0.2"/>
    <rect id="Rectangle_20" data-name="Rectangle 20" width="20.145" height="20.145" transform="translate(606.487 87.679)" fill="#6c63ff" opacity="0.2"/>
    <rect id="Rectangle_21" data-name="Rectangle 21" width="20.145" height="20.145" transform="translate(634.015 87.679)" fill="#6c63ff"/>
    <rect id="Rectangle_22" data-name="Rectangle 22" width="20.145" height="20.145" transform="translate(661.552 87.679)" fill="#6c63ff"/>
    <rect id="Rectangle_23" data-name="Rectangle 23" width="20.145" height="20.145" transform="translate(689.088 87.679)" fill="#6c63ff" opacity="0.2"/>
    <rect id="Rectangle_24" data-name="Rectangle 24" width="20.145" height="20.145" transform="translate(716.617 87.679)" fill="#6c63ff" opacity="0.2"/>
    <rect id="Rectangle_25" data-name="Rectangle 25" width="20.145" height="20.145" transform="translate(744.153 87.679)" fill="#6c63ff"/>
    <rect id="Rectangle_26" data-name="Rectangle 26" width="20.145" height="20.145" transform="translate(771.682 87.679)" fill="#6c63ff"/>
    <path id="Path_5" data-name="Path 5" d="M227.08,298.08v9.555h-6.46Q223.7,302.755,227.08,298.08Z" transform="translate(-68.511 -174.296)" fill="#6c63ff"/>
    <rect id="Rectangle_27" data-name="Rectangle 27" width="20.145" height="20.145" transform="translate(165.952 113.194)" fill="#6c63ff" opacity="0.2"/>
    <rect id="Rectangle_28" data-name="Rectangle 28" width="20.145" height="20.145" transform="translate(193.489 113.194)" fill="#6c63ff"/>
    <rect id="Rectangle_29" data-name="Rectangle 29" width="20.145" height="20.145" transform="translate(221.017 113.194)" fill="#6c63ff" opacity="0.2"/>
    <rect id="Rectangle_30" data-name="Rectangle 30" width="20.145" height="20.145" transform="translate(248.554 113.194)" fill="#6c63ff" opacity="0.7"/>
    <rect id="Rectangle_31" data-name="Rectangle 31" width="20.145" height="20.145" transform="translate(276.082 113.194)" fill="#6c63ff" opacity="0.2"/>
    <rect id="Rectangle_32" data-name="Rectangle 32" width="20.145" height="20.145" transform="translate(303.619 113.194)" fill="#6c63ff" opacity="0.4"/>
    <rect id="Rectangle_33" data-name="Rectangle 33" width="20.145" height="20.145" transform="translate(331.155 113.194)" fill="#6c63ff"/>
    <rect id="Rectangle_34" data-name="Rectangle 34" width="20.145" height="20.145" transform="translate(358.683 113.194)" fill="#6c63ff" opacity="0.4"/>
    <rect id="Rectangle_35" data-name="Rectangle 35" width="20.145" height="20.145" transform="translate(386.22 113.194)" fill="#6c63ff" opacity="0.2"/>
    <rect id="Rectangle_36" data-name="Rectangle 36" width="20.145" height="20.145" transform="translate(413.748 113.194)" fill="#6c63ff" opacity="0.4"/>
    <rect id="Rectangle_37" data-name="Rectangle 37" width="20.145" height="20.145" transform="translate(441.285 113.194)" fill="#6c63ff"/>
    <rect id="Rectangle_38" data-name="Rectangle 38" width="20.145" height="20.145" transform="translate(468.821 113.194)" fill="#6c63ff" opacity="0.4"/>
    <rect id="Rectangle_39" data-name="Rectangle 39" width="20.145" height="20.145" transform="translate(496.349 113.194)" fill="#6c63ff" opacity="0.4"/>
    <rect id="Rectangle_40" data-name="Rectangle 40" width="20.145" height="20.145" transform="translate(523.886 113.194)" fill="#6c63ff" opacity="0.2"/>
    <rect id="Rectangle_41" data-name="Rectangle 41" width="20.145" height="20.145" transform="translate(551.422 113.194)" fill="#6c63ff" opacity="0.4"/>
    <rect id="Rectangle_42" data-name="Rectangle 42" width="20.145" height="20.145" transform="translate(578.951 113.194)" fill="#6c63ff" opacity="0.4"/>
    <rect id="Rectangle_43" data-name="Rectangle 43" width="20.145" height="20.145" transform="translate(606.487 113.194)" fill="#6c63ff" opacity="0.2"/>
    <rect id="Rectangle_44" data-name="Rectangle 44" width="20.145" height="20.145" transform="translate(634.015 113.194)" fill="#6c63ff" opacity="0.2"/>
    <rect id="Rectangle_45" data-name="Rectangle 45" width="20.145" height="20.145" transform="translate(661.552 113.194)" fill="#6c63ff" opacity="0.4"/>
    <rect id="Rectangle_46" data-name="Rectangle 46" width="20.145" height="20.145" transform="translate(689.088 113.194)" fill="#6c63ff" opacity="0.2"/>
    <rect id="Rectangle_47" data-name="Rectangle 47" width="20.145" height="20.145" transform="translate(716.617 113.194)" fill="#6c63ff"/>
    <rect id="Rectangle_48" data-name="Rectangle 48" width="20.145" height="20.145" transform="translate(744.153 113.194)" fill="#6c63ff"/>
    <rect id="Rectangle_49" data-name="Rectangle 49" width="20.145" height="20.145" transform="translate(771.682 113.194)" fill="#6c63ff"/>
    <path id="Path_6" data-name="Path 6" d="M153.695,324.67v14.08H133.55v-6.878a137.82,137.82,0,0,1,20.145-7.2Z" transform="translate(-50.199 -179.888)" fill="#6c63ff" opacity="0.2"/>
    <path id="Path_7" data-name="Path 7" d="M160.565,177.57V196.2H140.42V180.334Z" transform="translate(-29.532 -37.337)" fill="#6c63ff" opacity="0.2"/>
    <rect id="Rectangle_50" data-name="Rectangle 50" width="20.145" height="20.145" transform="translate(138.416 138.717)" fill="#6c63ff"/>
    <rect id="Rectangle_51" data-name="Rectangle 51" width="20.145" height="20.145" transform="translate(165.952 138.717)" fill="#6c63ff" opacity="0.7"/>
    <rect id="Rectangle_52" data-name="Rectangle 52" width="20.145" height="20.145" transform="translate(193.489 138.717)" fill="#6c63ff"/>
    <rect id="Rectangle_53" data-name="Rectangle 53" width="20.145" height="20.145" transform="translate(221.017 138.717)" fill="#6c63ff" opacity="0.7"/>
    <rect id="Rectangle_54" data-name="Rectangle 54" width="20.145" height="20.145" transform="translate(248.554 138.717)" fill="#6c63ff" opacity="0.7"/>
    <rect id="Rectangle_55" data-name="Rectangle 55" width="20.145" height="20.145" transform="translate(276.082 138.717)" fill="#6c63ff" opacity="0.2"/>
    <rect id="Rectangle_56" data-name="Rectangle 56" width="20.145" height="20.145" transform="translate(303.619 138.717)" fill="#6c63ff" opacity="0.4"/>
    <rect id="Rectangle_57" data-name="Rectangle 57" width="20.145" height="20.145" transform="translate(331.155 138.717)" fill="#6c63ff" opacity="0.4"/>
    <rect id="Rectangle_58" data-name="Rectangle 58" width="20.145" height="20.145" transform="translate(358.683 138.717)" fill="#6c63ff"/>
    <rect id="Rectangle_59" data-name="Rectangle 59" width="20.145" height="20.145" transform="translate(386.22 138.717)" fill="#6c63ff" opacity="0.2"/>
    <rect id="Rectangle_60" data-name="Rectangle 60" width="20.145" height="20.145" transform="translate(413.748 138.717)" fill="#6c63ff" opacity="0.4"/>
    <rect id="Rectangle_61" data-name="Rectangle 61" width="20.145" height="20.145" transform="translate(441.285 138.717)" fill="#6c63ff"/>
    <rect id="Rectangle_62" data-name="Rectangle 62" width="20.145" height="20.145" transform="translate(468.821 138.717)" fill="#6c63ff" opacity="0.2"/>
    <rect id="Rectangle_63" data-name="Rectangle 63" width="20.145" height="20.145" transform="translate(496.349 138.717)" fill="#6c63ff" opacity="0.4"/>
    <rect id="Rectangle_64" data-name="Rectangle 64" width="20.145" height="20.145" transform="translate(523.886 138.717)" fill="#6c63ff" opacity="0.2"/>
    <rect id="Rectangle_65" data-name="Rectangle 65" width="20.145" height="20.145" transform="translate(551.422 138.717)" fill="#6c63ff"/>
    <rect id="Rectangle_66" data-name="Rectangle 66" width="20.145" height="20.145" transform="translate(578.951 138.717)" fill="#6c63ff" opacity="0.2"/>
    <rect id="Rectangle_67" data-name="Rectangle 67" width="20.145" height="20.145" transform="translate(606.487 138.717)" fill="#6c63ff" opacity="0.7"/>
    <rect id="Rectangle_68" data-name="Rectangle 68" width="20.145" height="20.145" transform="translate(634.015 138.717)" fill="#6c63ff" opacity="0.7"/>
    <rect id="Rectangle_69" data-name="Rectangle 69" width="20.145" height="20.145" transform="translate(661.552 138.717)" fill="#6c63ff" opacity="0.4"/>
    <rect id="Rectangle_70" data-name="Rectangle 70" width="20.145" height="20.145" transform="translate(689.088 138.717)" fill="#6c63ff" opacity="0.2"/>
    <rect id="Rectangle_71" data-name="Rectangle 71" width="20.145" height="20.145" transform="translate(716.617 138.717)" fill="#6c63ff"/>
    <rect id="Rectangle_72" data-name="Rectangle 72" width="20.145" height="20.145" transform="translate(744.153 138.717)" fill="#6c63ff"/>
    <rect id="Rectangle_73" data-name="Rectangle 73" width="20.145" height="20.145" transform="translate(771.682 138.717)" fill="#6c63ff"/>
    <rect id="Rectangle_74" data-name="Rectangle 74" width="20.145" height="20.145" transform="translate(83.351 164.232)" fill="#6c63ff" opacity="0.2"/>
    <rect id="Rectangle_75" data-name="Rectangle 75" width="20.145" height="20.145" transform="translate(110.888 164.232)" fill="#6c63ff" opacity="0.2"/>
    <rect id="Rectangle_76" data-name="Rectangle 76" width="20.145" height="20.145" transform="translate(138.416 164.232)" fill="#6c63ff" opacity="0.2"/>
    <rect id="Rectangle_77" data-name="Rectangle 77" width="20.145" height="20.145" transform="translate(165.952 164.232)" fill="#6c63ff" opacity="0.2"/>
    <rect id="Rectangle_78" data-name="Rectangle 78" width="20.145" height="20.145" transform="translate(193.489 164.232)" fill="#6c63ff"/>
    <rect id="Rectangle_79" data-name="Rectangle 79" width="20.145" height="20.145" transform="translate(221.017 164.232)" fill="#6c63ff" opacity="0.7"/>
    <rect id="Rectangle_80" data-name="Rectangle 80" width="20.145" height="20.145" transform="translate(248.554 164.232)" fill="#6c63ff" opacity="0.7"/>
    <rect id="Rectangle_81" data-name="Rectangle 81" width="20.145" height="20.145" transform="translate(276.082 164.232)" fill="#6c63ff" opacity="0.2"/>
    <rect id="Rectangle_82" data-name="Rectangle 82" width="20.145" height="20.145" transform="translate(303.619 164.232)" fill="#6c63ff" opacity="0.2"/>
    <rect id="Rectangle_83" data-name="Rectangle 83" width="20.145" height="20.145" transform="translate(331.155 164.232)" fill="#6c63ff" opacity="0.4"/>
    <rect id="Rectangle_84" data-name="Rectangle 84" width="20.145" height="20.145" transform="translate(358.683 164.232)" fill="#6c63ff" opacity="0.4"/>
    <rect id="Rectangle_85" data-name="Rectangle 85" width="20.145" height="20.145" transform="translate(386.22 164.232)" fill="#6c63ff"/>
    <rect id="Rectangle_86" data-name="Rectangle 86" width="20.145" height="20.145" transform="translate(413.748 164.232)" fill="#6c63ff" opacity="0.2"/>
    <rect id="Rectangle_87" data-name="Rectangle 87" width="20.145" height="20.145" transform="translate(441.285 164.232)" fill="#6c63ff" opacity="0.4"/>
    <rect id="Rectangle_88" data-name="Rectangle 88" width="20.145" height="20.145" transform="translate(468.821 164.232)" fill="#6c63ff" opacity="0.4"/>
    <rect id="Rectangle_89" data-name="Rectangle 89" width="20.145" height="20.145" transform="translate(496.349 164.232)" fill="#6c63ff" opacity="0.4"/>
    <rect id="Rectangle_90" data-name="Rectangle 90" width="20.145" height="20.145" transform="translate(523.886 164.232)" fill="#6c63ff" opacity="0.4"/>
    <rect id="Rectangle_91" data-name="Rectangle 91" width="20.145" height="20.145" transform="translate(551.422 164.232)" fill="#6c63ff" opacity="0.2"/>
    <rect id="Rectangle_92" data-name="Rectangle 92" width="20.145" height="20.145" transform="translate(578.951 164.232)" fill="#6c63ff" opacity="0.2"/>
    <rect id="Rectangle_93" data-name="Rectangle 93" width="20.145" height="20.145" transform="translate(606.487 164.232)" fill="#6c63ff" opacity="0.2"/>
    <rect id="Rectangle_94" data-name="Rectangle 94" width="20.145" height="20.145" transform="translate(634.015 164.232)" fill="#6c63ff" opacity="0.2"/>
    <rect id="Rectangle_95" data-name="Rectangle 95" width="20.145" height="20.145" transform="translate(661.552 164.232)" fill="#6c63ff" opacity="0.7"/>
    <rect id="Rectangle_96" data-name="Rectangle 96" width="20.145" height="20.145" transform="translate(689.088 164.232)" fill="#6c63ff" opacity="0.7"/>
    <rect id="Rectangle_97" data-name="Rectangle 97" width="20.145" height="20.145" transform="translate(716.617 164.232)" fill="#6c63ff" opacity="0.4"/>
    <rect id="Rectangle_98" data-name="Rectangle 98" width="20.145" height="20.145" transform="translate(744.153 164.232)" fill="#6c63ff" opacity="0.2"/>
    <rect id="Rectangle_99" data-name="Rectangle 99" width="20.145" height="20.145" transform="translate(771.682 164.232)" fill="#6c63ff"/>
    <rect id="Rectangle_100" data-name="Rectangle 100" width="20.145" height="20.145" transform="translate(83.351 189.754)" fill="#6c63ff" opacity="0.2"/>
    <rect id="Rectangle_101" data-name="Rectangle 101" width="20.145" height="20.145" transform="translate(110.888 189.754)" fill="#6c63ff" opacity="0.2"/>
    <rect id="Rectangle_102" data-name="Rectangle 102" width="20.145" height="20.145" transform="translate(138.416 189.754)" fill="#6c63ff" opacity="0.4"/>
    <rect id="Rectangle_103" data-name="Rectangle 103" width="20.145" height="20.145" transform="translate(165.952 189.754)" fill="#6c63ff" opacity="0.2"/>
    <rect id="Rectangle_104" data-name="Rectangle 104" width="20.145" height="20.145" transform="translate(193.489 189.754)" fill="#6c63ff" opacity="0.2"/>
    <rect id="Rectangle_105" data-name="Rectangle 105" width="20.145" height="20.145" transform="translate(221.017 189.754)" fill="#6c63ff" opacity="0.7"/>
    <rect id="Rectangle_106" data-name="Rectangle 106" width="20.145" height="20.145" transform="translate(248.554 189.754)" fill="#6c63ff" opacity="0.7"/>
    <rect id="Rectangle_107" data-name="Rectangle 107" width="20.145" height="20.145" transform="translate(276.082 189.754)" fill="#6c63ff" opacity="0.2"/>
    <rect id="Rectangle_108" data-name="Rectangle 108" width="20.145" height="20.145" transform="translate(303.619 189.754)" fill="#6c63ff" opacity="0.2"/>
    <rect id="Rectangle_109" data-name="Rectangle 109" width="20.145" height="20.145" transform="translate(331.155 189.754)" fill="#6c63ff" opacity="0.4"/>
    <rect id="Rectangle_110" data-name="Rectangle 110" width="20.145" height="20.145" transform="translate(358.683 189.754)" fill="#6c63ff"/>
    <rect id="Rectangle_111" data-name="Rectangle 111" width="20.145" height="20.145" transform="translate(386.22 189.754)" fill="#6c63ff" opacity="0.2"/>
    <rect id="Rectangle_112" data-name="Rectangle 112" width="20.145" height="20.145" transform="translate(413.748 189.754)" fill="#6c63ff"/>
    <rect id="Rectangle_113" data-name="Rectangle 113" width="20.145" height="20.145" transform="translate(441.285 189.754)" fill="#6c63ff"/>
    <rect id="Rectangle_114" data-name="Rectangle 114" width="20.145" height="20.145" transform="translate(468.821 189.754)" fill="#6c63ff"/>
    <rect id="Rectangle_115" data-name="Rectangle 115" width="20.145" height="20.145" transform="translate(496.349 189.754)" fill="#6c63ff" opacity="0.2"/>
    <rect id="Rectangle_116" data-name="Rectangle 116" width="20.145" height="20.145" transform="translate(523.886 189.754)" fill="#6c63ff"/>
    <rect id="Rectangle_117" data-name="Rectangle 117" width="20.145" height="20.145" transform="translate(551.422 189.754)" fill="#6c63ff" opacity="0.2"/>
    <rect id="Rectangle_118" data-name="Rectangle 118" width="20.145" height="20.145" transform="translate(578.951 189.754)" fill="#6c63ff" opacity="0.2"/>
    <rect id="Rectangle_119" data-name="Rectangle 119" width="20.145" height="20.145" transform="translate(606.487 189.754)" fill="#6c63ff" opacity="0.2"/>
    <rect id="Rectangle_120" data-name="Rectangle 120" width="20.145" height="20.145" transform="translate(634.015 189.754)" fill="#6c63ff" opacity="0.2"/>
    <rect id="Rectangle_121" data-name="Rectangle 121" width="20.145" height="20.145" transform="translate(661.552 189.754)" fill="#6c63ff" opacity="0.2"/>
    <rect id="Rectangle_122" data-name="Rectangle 122" width="20.145" height="20.145" transform="translate(689.088 189.754)" fill="#6c63ff" opacity="0.7"/>
    <rect id="Rectangle_123" data-name="Rectangle 123" width="20.145" height="20.145" transform="translate(716.617 189.754)" fill="#6c63ff" opacity="0.2"/>
    <rect id="Rectangle_124" data-name="Rectangle 124" width="20.145" height="20.145" transform="translate(744.153 189.754)" fill="#6c63ff" opacity="0.2"/>
    <rect id="Rectangle_125" data-name="Rectangle 125" width="20.145" height="20.145" transform="translate(771.682 189.754)" fill="#6c63ff"/>
    <rect id="Rectangle_126" data-name="Rectangle 126" width="20.145" height="20.145" transform="translate(83.351 215.269)" fill="#6c63ff" opacity="0.2"/>
    <rect id="Rectangle_127" data-name="Rectangle 127" width="20.145" height="20.145" transform="translate(110.888 215.269)" fill="#6c63ff" opacity="0.2"/>
    <rect id="Rectangle_128" data-name="Rectangle 128" width="20.145" height="20.145" transform="translate(138.416 215.269)" fill="#6c63ff" opacity="0.2"/>
    <rect id="Rectangle_129" data-name="Rectangle 129" width="20.145" height="20.145" transform="translate(165.952 215.269)" fill="#6c63ff" opacity="0.4"/>
    <rect id="Rectangle_130" data-name="Rectangle 130" width="20.145" height="20.145" transform="translate(193.489 215.269)" fill="#6c63ff" opacity="0.2"/>
    <rect id="Rectangle_131" data-name="Rectangle 131" width="20.145" height="20.145" transform="translate(221.017 215.269)" fill="#6c63ff" opacity="0.2"/>
    <rect id="Rectangle_132" data-name="Rectangle 132" width="20.145" height="20.145" transform="translate(248.554 215.269)" fill="#6c63ff" opacity="0.7"/>
    <rect id="Rectangle_133" data-name="Rectangle 133" width="20.145" height="20.145" transform="translate(276.082 215.269)" fill="#6c63ff" opacity="0.2"/>
    <rect id="Rectangle_134" data-name="Rectangle 134" width="20.145" height="20.145" transform="translate(303.619 215.269)" fill="#6c63ff" opacity="0.2"/>
    <rect id="Rectangle_135" data-name="Rectangle 135" width="20.145" height="20.145" transform="translate(331.155 215.269)" fill="#6c63ff" opacity="0.2"/>
    <rect id="Rectangle_136" data-name="Rectangle 136" width="20.145" height="20.145" transform="translate(358.683 215.269)" fill="#6c63ff"/>
    <rect id="Rectangle_137" data-name="Rectangle 137" width="20.145" height="20.145" transform="translate(386.22 215.269)" fill="#6c63ff" opacity="0.2"/>
    <rect id="Rectangle_138" data-name="Rectangle 138" width="20.145" height="20.145" transform="translate(413.748 215.269)" fill="#6c63ff"/>
    <rect id="Rectangle_139" data-name="Rectangle 139" width="20.145" height="20.145" transform="translate(441.285 215.269)" fill="#6c63ff"/>
    <rect id="Rectangle_140" data-name="Rectangle 140" width="20.145" height="20.145" transform="translate(468.821 215.269)" fill="#6c63ff" opacity="0.2"/>
    <rect id="Rectangle_141" data-name="Rectangle 141" width="20.145" height="20.145" transform="translate(496.349 215.269)" fill="#6c63ff" opacity="0.2"/>
    <rect id="Rectangle_142" data-name="Rectangle 142" width="20.145" height="20.145" transform="translate(523.886 215.269)" fill="#6c63ff" opacity="0.2"/>
    <rect id="Rectangle_143" data-name="Rectangle 143" width="20.145" height="20.145" transform="translate(551.422 215.269)" fill="#6c63ff" opacity="0.2"/>
    <rect id="Rectangle_144" data-name="Rectangle 144" width="20.145" height="20.145" transform="translate(578.951 215.269)" fill="#6c63ff" opacity="0.2"/>
    <rect id="Rectangle_145" data-name="Rectangle 145" width="20.145" height="20.145" transform="translate(606.487 215.269)" fill="#6c63ff" opacity="0.2"/>
    <rect id="Rectangle_146" data-name="Rectangle 146" width="20.145" height="20.145" transform="translate(634.015 215.269)" fill="#6c63ff" opacity="0.2"/>
    <rect id="Rectangle_147" data-name="Rectangle 147" width="20.145" height="20.145" transform="translate(661.552 215.269)" fill="#6c63ff" opacity="0.2"/>
    <rect id="Rectangle_148" data-name="Rectangle 148" width="20.145" height="20.145" transform="translate(689.088 215.269)" fill="#6c63ff" opacity="0.2"/>
    <rect id="Rectangle_149" data-name="Rectangle 149" width="20.145" height="20.145" transform="translate(716.617 215.269)" fill="#6c63ff" opacity="0.2"/>
    <rect id="Rectangle_150" data-name="Rectangle 150" width="20.145" height="20.145" transform="translate(744.153 215.269)" fill="#6c63ff" opacity="0.4"/>
    <rect id="Rectangle_151" data-name="Rectangle 151" width="20.145" height="20.145" transform="translate(771.682 215.269)" fill="#6c63ff"/>
    <rect id="Rectangle_152" data-name="Rectangle 152" width="20.145" height="20.145" transform="translate(83.351 240.792)" fill="#6c63ff" opacity="0.7"/>
    <rect id="Rectangle_153" data-name="Rectangle 153" width="20.145" height="20.145" transform="translate(110.888 240.792)" fill="#6c63ff" opacity="0.7"/>
    <rect id="Rectangle_154" data-name="Rectangle 154" width="20.145" height="20.145" transform="translate(138.416 240.792)" fill="#6c63ff" opacity="0.7"/>
    <rect id="Rectangle_155" data-name="Rectangle 155" width="20.145" height="20.145" transform="translate(165.952 240.792)" fill="#6c63ff" opacity="0.7"/>
    <rect id="Rectangle_156" data-name="Rectangle 156" width="20.145" height="20.145" transform="translate(193.489 240.792)" fill="#6c63ff" opacity="0.7"/>
    <rect id="Rectangle_157" data-name="Rectangle 157" width="20.145" height="20.145" transform="translate(221.017 240.792)" fill="#6c63ff" opacity="0.2"/>
    <rect id="Rectangle_158" data-name="Rectangle 158" width="20.145" height="20.145" transform="translate(248.554 240.792)" fill="#6c63ff" opacity="0.2"/>
    <rect id="Rectangle_159" data-name="Rectangle 159" width="20.145" height="20.145" transform="translate(276.082 240.792)" fill="#6c63ff" opacity="0.2"/>
    <rect id="Rectangle_160" data-name="Rectangle 160" width="20.145" height="20.145" transform="translate(303.619 240.792)" fill="#6c63ff" opacity="0.2"/>
    <rect id="Rectangle_161" data-name="Rectangle 161" width="20.145" height="20.145" transform="translate(331.155 240.792)" fill="#6c63ff" opacity="0.2"/>
    <rect id="Rectangle_162" data-name="Rectangle 162" width="20.145" height="20.145" transform="translate(358.683 240.792)" fill="#6c63ff" opacity="0.2"/>
    <rect id="Rectangle_163" data-name="Rectangle 163" width="20.145" height="20.145" transform="translate(386.22 240.792)" fill="#6c63ff"/>
    <rect id="Rectangle_164" data-name="Rectangle 164" width="20.145" height="20.145" transform="translate(413.748 240.792)" fill="#6c63ff" opacity="0.2"/>
    <rect id="Rectangle_165" data-name="Rectangle 165" width="20.145" height="20.145" transform="translate(441.285 240.792)" fill="#6c63ff" opacity="0.2"/>
    <rect id="Rectangle_166" data-name="Rectangle 166" width="20.145" height="20.145" transform="translate(468.821 240.792)" fill="#6c63ff" opacity="0.2"/>
    <rect id="Rectangle_167" data-name="Rectangle 167" width="20.145" height="20.145" transform="translate(496.349 240.792)" fill="#6c63ff"/>
    <rect id="Rectangle_168" data-name="Rectangle 168" width="20.145" height="20.145" transform="translate(523.886 240.792)" fill="#6c63ff" opacity="0.2"/>
    <rect id="Rectangle_169" data-name="Rectangle 169" width="20.145" height="20.145" transform="translate(551.422 240.792)" fill="#6c63ff" opacity="0.2"/>
    <rect id="Rectangle_170" data-name="Rectangle 170" width="20.145" height="20.145" transform="translate(578.951 240.792)" fill="#6c63ff" opacity="0.2"/>
    <rect id="Rectangle_171" data-name="Rectangle 171" width="20.145" height="20.145" transform="translate(606.487 240.792)" fill="#6c63ff" opacity="0.2"/>
    <rect id="Rectangle_172" data-name="Rectangle 172" width="20.145" height="20.145" transform="translate(634.015 240.792)" fill="#6c63ff" opacity="0.2"/>
    <rect id="Rectangle_173" data-name="Rectangle 173" width="20.145" height="20.145" transform="translate(661.552 240.792)" fill="#6c63ff" opacity="0.2"/>
    <rect id="Rectangle_174" data-name="Rectangle 174" width="20.145" height="20.145" transform="translate(689.088 240.792)" fill="#6c63ff" opacity="0.2"/>
    <rect id="Rectangle_175" data-name="Rectangle 175" width="20.145" height="20.145" transform="translate(716.617 240.792)" fill="#6c63ff" opacity="0.2"/>
    <rect id="Rectangle_176" data-name="Rectangle 176" width="20.145" height="20.145" transform="translate(744.153 240.792)" fill="#6c63ff" opacity="0.2"/>
    <rect id="Rectangle_177" data-name="Rectangle 177" width="20.145" height="20.145" transform="translate(771.682 240.792)" fill="#6c63ff"/>
    <circle id="Ellipse_6" data-name="Ellipse 6" cx="27.536" cy="27.536" r="27.536" transform="translate(552.504 259.831)" fill="#767d9f"/>
    <path id="Path_8" data-name="Path 8" d="M760.522,455.255q4.122,17.989,7,36.247c.576,3.617,1.09,7.431-.221,10.85-1.1,2.851-3.332,5.078-5.086,7.573s-3.08,5.694-2.014,8.552,4.177,4.422,7.147,5.228c8.5,2.29,17.555.624,26.012-1.856a42.081,42.081,0,0,0,10.906-4.517,40.81,40.81,0,0,0,9.224-8.686c12.327-14.949,20.4-32.89,27.994-50.722a30.893,30.893,0,0,1-26.147-10.534c-3.111-3.656-5.394-8.75-3.64-13.219-5.141,2.819-11.245,3.009-16.781,4.936a59.615,59.615,0,0,0-9.871,4.857q-5.67,3.277-11.277,6.681C769.493,453.217,765.489,455.507,760.522,455.255Z" transform="translate(-181.911 -202.918)" fill="#ae6e79"/>
    <path id="Path_9" data-name="Path 9" d="M802.032,480.281c-4.825,9.389-11.1,18.415-20.066,24.006s-21.029,7.107-30.008,1.579c-4.422-2.7-7.771-6.807-11.632-10.266s-8.686-6.42-13.875-5.97c-5.717.5-10.195,4.959-14.025,9.231-5.812,6.491-11.427,13.259-15.541,20.943-7.9,14.767-9.768,32.03-9.421,48.771s2.772,33.4,2.827,50.137c.079,20.6-3.411,41.024-6.941,61.311,32.456-4,64.952,4.738,97.479,8.047,20.816,2.14,41.79,2.093,62.717,2.037,3.68,0,7.6-.095,10.661-2.132a14.372,14.372,0,0,0,4.414-5.244c2.89-5.33,4.051-11.411,4.857-17.42,2.045-15.178,2.108-30.545,2.164-45.865.142-37.115.276-74.365-4.438-111.188-1.161-9.058-2.645-18.163-6.12-26.636s-9.145-16.268-17.073-20.808c-5.094-2.922-16.9-8.007-22.9-5.062C808.373,459.039,805.262,474,802.032,480.281Z" transform="translate(-165.829 -207.27)" fill="#32058e"/>
    <path id="Path_10" data-name="Path 10" d="M834.846,583.359c-1.224-22.9-6.207-47.342,4.4-67.668,2.606-4.991-6.744-11.221-3.854-16.054a72.717,72.717,0,0,0,7.944-18.9,14.254,14.254,0,0,0,.513-6.989c-1.05-4.177-5.18-6.665-8.687-9.208-3.869-2.811-5.859-11.379-7.107-16.015s9.926.948,14.42-.7c6.239-2.282,14.167-.845,20.39,1.469,3.475,1.279,7.249,1.39,10.953,1.485,7.194.19,14.412.371,21.551-.513a53.606,53.606,0,0,1,9.642-.829c8.221.466,15.367,6.088,20.232,12.738s7.96,14.4,11.948,21.6c3.325,6,7.289,11.672,10.124,17.918a110.31,110.31,0,0,1,5.67,17.373l4.051,15.154a20.2,20.2,0,0,1,.995,6.72,19.076,19.076,0,0,1-2.369,6.839,129.6,129.6,0,0,1-14.743,22.5c-8.521,10.448-18.866,19.868-23.927,32.377a81.777,81.777,0,0,0-4.075,15.217,559.064,559.064,0,0,0-8.608,62.5,137.564,137.564,0,0,0-28.839-9.642,140.241,140.241,0,0,0-15-2.369c-4.414-.458-10.108.411-14.309-.79-7.028-2-7.8-13.883-8.868-20.105-1.706-9.911-2.045-19.995-2.108-30.008C835.1,606.07,835.454,594.707,834.846,583.359Z" transform="translate(-196.242 -205.541)" fill="#4c4981"/>
    <path id="Path_11" data-name="Path 11" d="M623.071,562.7c3.325,18.952,6.989,37.96,14.214,55.768-.182.174-.363.332-.545.49-.64.545-1.3,1.058-2,1.579A26.6,26.6,0,0,0,630,624.122a6.317,6.317,0,0,0-1.185,1.935,4.327,4.327,0,0,0,0,3.53c-3.767,1.666-8.142,1.153-12.366,1-3.641-.134-7.17,0-10.092,2-4.059,2.8-5.283,8.165-5.938,13.046q-.363,2.669-.624,5.346-.253,2.487-.411,4.991a148.943,148.943,0,0,0-.15,16.583q.063,1.516.166,3.032c-12.9-.308-24.662-7.036-35.789-13.575-2.543-1.493-5.165-3.064-6.815-5.528a12.478,12.478,0,0,1-1.824-8.126,8.964,8.964,0,0,1,.126-1.2,32.837,32.837,0,0,1,1.808-6.854,84.654,84.654,0,0,1,15.154-25.783c2.827-3.3,6.01-6.531,7.328-10.677.576-1.808.79-3.727,1.374-5.528,2.622-7.8,12.082-11.49,15.32-19.063.79-1.808,1.153-3.79,2.132-5.528a13.922,13.922,0,0,1,3.356-3.751c.576-.482,1.177-.948,1.769-1.414q8.323-6.523,16.039-13.78,1.437-1.35,2.843-2.732a46.972,46.972,0,0,0,.845,10.661Z" transform="translate(-138.812 -227.707)" fill="#4c4981"/>
    <path id="Path_12" data-name="Path 12" d="M720.592,489.977c-1.137,1.2-2.369,2.33-3.577,3.451l-.324.292-1.279,1.185a30.8,30.8,0,0,0-5.962,6.941l-.134.221c-4.027,7.21-2.535,16.086-1.414,24.275a206.53,206.53,0,0,1,1.872,30.8c-.205,14.214-1.879,28.334-1.911,42.533q0,4.833.213,9.658c.229,5.236.624,10.463,1.1,15.691.513,5.733,1.129,11.458,1.706,17.184.458,4.43.892,8.852,1.256,13.275.182,2.29.355,4.572.5,6.862.166,2.685.3,5.378.379,8.063h0c.055,1.706.087,3.4.087,5.109v2.9q0,2.772-.15,5.528-.158,3.546-.482,7.107c-.245,2.582-.679,5.4-2.5,7.218-.111.111-.229.213-.347.316l-2.559-.316a262.742,262.742,0,0,0-53.146-.948c.387-2.669.742-5.33,1.09-8.007.158-1.263.316-2.535.466-3.806q.261-2.18.5-4.359.272-2.369.505-4.738.616-6.1,1.082-12.216.687-8.915,1.042-17.863.174-4.272.269-8.552.134-5.307.126-10.621,0-5.165-.087-10.345c0-1.137-.047-2.274-.142-3.4a21.589,21.589,0,0,0-.419-3.024,39.387,39.387,0,0,0-2.369-6.7c-.174-.411-.34-.79-.505-1.224-.095-.213-.182-.434-.269-.648,4.549-4.051,7.786-9.476,10.9-14.815,5.046-8.6,10.211-17.578,11.056-27.513s-4.091-21.093-13.583-24.125a65.982,65.982,0,0,0-7.976-1.477c-2.511-.442-7.747-1.445-10.653-3.246q-2.369,2.432-4.738,4.778a17.49,17.49,0,0,1,1.714-6.878l1.121.055a2.142,2.142,0,0,1-.126-.79c0-.845.584-1.8,1.832-2.859,3.719-3.159,9.571-3.862,11.916-8.134.979-1.777,1.145-3.893,1.935-5.757,2.266-5.315,8.773-7.273,12.69-11.522s4.9-10.266,8.063-15a22.6,22.6,0,0,1,9.476-7.9c.316-.15.64-.3.963-.434,6.555-2.8,14.341-3.443,21.132-3.427,2.638,0,9.476.079,12.825,1.414a4.2,4.2,0,0,1,1.461.892C728.781,478.961,723.23,487.166,720.592,489.977Z" transform="translate(-156.756 -211.036)" fill="#4c4981"/>
    <path id="Path_13" data-name="Path 13" d="M638.783,542.146a48.076,48.076,0,0,1,36.91,3.846c5.686,3.159,10.787,7.565,13.914,13.251,4.7,8.529,4.493,18.81,4.162,28.547-.166,4.872-.379,9.919-2.527,14.293-2.487,5.062-7.178,8.536-11.964,11.379a33.357,33.357,0,0,1-9.729,4.209c-5.307,1.153-10.819.174-16.165-.79-5.812-1.074-12.051-2.369-16.086-6.7-2.369-2.511-3.664-5.773-4.943-8.963q-2.756-6.91-5.528-13.8c-3.2-7.984-4.28-14.625-.055-22.4,1.919-3.546,4.264-6.862,6.16-10.432C633.879,552.768,637.275,542.612,638.783,542.146Z" transform="translate(-153.347 -225.197)" fill="#4c4981"/>
    <path id="Path_14" data-name="Path 14" d="M868.256,703.164v23.612a132.116,132.116,0,0,1-51.116,10.108H604.169c-.111.111-.229.213-.347.316l-2.559-.316H222.427c-31.785,0-61.24-8.576-85.4-23.185V677.649l182.2-21.029h.142l106.1,8.987,27.457,2.369,14.262,1.208,29.518,2.5,15.186,1.287,22.111,1.88,3.111.261,15.936,1.35,21.622,1.777,30.4,2.574,50.682,4.3,35.654,3.025,58.547,4.967,11.135.94,1.2.1,1.042.087,14.7,1.248,16.141,1.374,1.872.158Z" transform="translate(-50.931 -249.702)" fill="#504f60"/>
    <path id="Path_15" data-name="Path 15" d="M700.832,562.741,472.5,523.77l-8.852,44.767L568.315,581.07l32.227,4.035,88.65-17.46Z" transform="translate(-97.512 -110.148)" fill="#26026d"/>
    <path id="Path_16" data-name="Path 16" d="M642.33,734.194l114.394-21.5a3.948,3.948,0,0,1,4.691,3.893h0a3.948,3.948,0,0,1-3.23,3.893L646.468,741.4Z" transform="translate(-157.202 -261.48)" fill="#5e35b1"/>
    <path id="Path_17" data-name="Path 17" d="M681.459,650.237a29.5,29.5,0,0,0,10.377-2.472c3.948-1.966,7.02-5.354,10.677-7.849,8.039-5.528,18.795-6.27,28.01-3.1s16.907,9.974,22.293,18.092c3.577,5.409,6.262,12.311,3.735,18.281a24.094,24.094,0,0,1-3.253,5.086l-6.586,8.608a22.9,22.9,0,0,1-4.47,4.809,18.992,18.992,0,0,1-8.544,2.969c-8.015,1.169-16.173.505-24.251,1.042-13.875.924-27.426,5.394-41.332,5.244-7.992-.087-15.881-1.7-23.691-3.309l-34.565-7.107c-6.017-1.232-12.817-3.032-15.652-8.489-1.271-2.456-1.508-5.3-1.658-8.063-.411-7.613,0-16.078,5.275-21.566,4.959-5.149,12.8-6.775,18.724-10.582,7.249-4.667,9.642-3.159,17.286.347a94.762,94.762,0,0,0,47.626,8.055Z" transform="translate(-146.707 -245.143)" fill="#ae6e79"/>
    <path id="Path_18" data-name="Path 18" d="M681.459,650.237a29.5,29.5,0,0,0,10.377-2.472c3.948-1.966,7.02-5.354,10.677-7.849,8.039-5.528,18.795-6.27,28.01-3.1s16.907,9.974,22.293,18.092c3.577,5.409,6.262,12.311,3.735,18.281a24.094,24.094,0,0,1-3.253,5.086l-6.586,8.608a22.9,22.9,0,0,1-4.47,4.809,18.992,18.992,0,0,1-8.544,2.969c-8.015,1.169-16.173.505-24.251,1.042-13.875.924-27.426,5.394-41.332,5.244-7.992-.087-15.881-1.7-23.691-3.309l-34.565-7.107c-6.017-1.232-12.817-3.032-15.652-8.489-1.271-2.456-1.508-5.3-1.658-8.063-.411-7.613,0-16.078,5.275-21.566,4.959-5.149,12.8-6.775,18.724-10.582,7.249-4.667,9.642-3.159,17.286.347a94.762,94.762,0,0,0,47.626,8.055Z" transform="translate(-146.707 -245.143)" opacity="0.05"/>
    <path id="Path_19" data-name="Path 19" d="M826.482,639.523c-9.7,3.751-19.45,7.518-29.605,9.753-17.026,3.751-34.841,3.159-51.732,7.447-8.923,2.274-17.792,5.939-26.96,5.2-4.1-.332-8.055-1.579-12.043-2.527-22.4-5.528-47.871-3.735-66.065,10.479-6.223,4.857-11.316,10.913-15.936,17.373a11.608,11.608,0,0,0,4.667,17.278,68.4,68.4,0,0,0,22.411,5.978c10.369.916,20.785-.553,31.1-2.022,15.3-2.172,30.616-4.351,45.881-6.791,5.48-.877,10.961-1.785,16.473-2.48,39.666-5.015,80.05,1.082,119.819-3.1,4.02-.426,8.11-.979,11.766-2.693,9.255-4.343,13.835-15.794,11.924-25.854S878.894,649.134,870.018,644c-7.439-4.32-15.462-6.065-23.746-7.9C838.58,634.312,833.89,636.681,826.482,639.523Z" transform="translate(-152.927 -245.256)" fill="#ae6e79"/>
    <path id="Path_20" data-name="Path 20" d="M961.119,555.471c4.375,5.733,5.307,13.425,4.833,20.6s-2.18,14.277-2.432,21.487c-.347,9.887,2.037,19.742,1.635,29.6-.284,6.894-1.919,13.654-3.854,20.271-2.282,7.81-5.583,16.2-12.793,19.955-9.571,4.983-29.645,2.18-39.713,6.081.916-5.709,9.7-13.977,10.613-19.687.632-3.948,1.271-8.008.592-11.964-.869-5.046-3.83-9.524-7.344-13.251a38.751,38.751,0,0,0-20.9-11.845c-8.015-1.453-27.639-.261-34.051,4.8-.79-5.228,13.9-10.266,19.063-11.4,2.574-.576,5.528-.253,7.589-1.887,3.948-3.1,1.082-9.263,1.271-14.214.15-3.948,2.456-7.565,2.922-11.514.79-6.318-3.332-12.753-1.714-18.953.6-2.29,1.935-4.3,2.859-6.483,2.811-6.673,1.579-14.285.079-21.377-.932-4.454-1.84-9.476.64-13.275,2.3-3.546,8.821,9.081,13,8.5,13.8-1.935,26.281-12.161,37.423-3.79,5.678,4.264,6.42,8.687,8.687,14.775C951.722,547.7,957.431,550.67,961.119,555.471Z" transform="translate(-202.491 -221.346)" opacity="0.1"/>
    <path id="Path_21" data-name="Path 21" d="M964.119,554.049c4.375,5.733,5.307,13.425,4.833,20.6s-2.18,14.278-2.432,21.487c-.347,9.887,2.037,19.742,1.635,29.6-.284,6.894-1.919,13.654-3.854,20.271-2.282,7.81-5.583,16.2-12.793,19.955-9.571,4.983-29.645,2.18-39.713,6.081.916-5.709,9.7-13.977,10.613-19.687.632-3.948,1.271-8.008.592-11.964-.869-5.046-3.83-9.524-7.344-13.251a38.751,38.751,0,0,0-20.9-11.845c-8.015-1.453-27.639-.261-34.051,4.8-.79-5.228,13.9-10.266,19.063-11.4,2.574-.576,5.528-.253,7.589-1.887,3.948-3.1,1.082-9.263,1.271-14.214.15-3.948,2.456-7.565,2.922-11.514.79-6.318-3.332-12.753-1.714-18.952.6-2.29,1.935-4.3,2.859-6.483,2.811-6.673,1.579-14.285.079-21.377-.932-4.454-1.84-9.476.64-13.275,2.3-3.546,6.791-4.888,10.969-5.48a54.031,54.031,0,0,1,39.484,10.187c5.678,4.264,6.42,8.687,8.686,14.775C954.722,546.278,960.431,549.248,964.119,554.049Z" transform="translate(-203.122 -219.924)" fill="#4c4981"/>
    <path id="Path_22" data-name="Path 22" d="M329.908,509.963l42.935,158.68a9.911,9.911,0,0,0,8.616,7.273l193.252,18.565a9.9,9.9,0,0,0,10.566-12.224l-47.018-191.4a9.9,9.9,0,0,0-10.361-7.51L338.7,497.494a9.9,9.9,0,0,0-8.789,12.469Z" transform="translate(-91.423 -213.253)" fill="#32058e"/>
    <ellipse id="Ellipse_7" data-name="Ellipse 7" cx="21.243" cy="21.519" rx="21.243" ry="21.519" transform="translate(600.327 284.635)" fill="#32058e"/>
    <path id="Path_23" data-name="Path 23" d="M834.424,479.22s4.478,13.314-8.734,18.913L824,501.086l8.276,8.165s10.2-18.613,9.1-25.223C841.373,484.029,839.794,477.316,834.424,479.22Z" transform="translate(-195.41 -212.321)" fill="#32058e"/>
    <circle id="Ellipse_8" data-name="Ellipse 8" cx="20.484" cy="20.484" r="20.484" transform="translate(603.526 286.704)" fill="#1e045c"/>
    <path id="Path_24" data-name="Path 24" d="M839.2,478.262l-3.253-5.37-4.738-.671c1.011-17.681-3.577-22.948-3.577-22.948l-1.066-.1-4.643-.45-8.734-9.066V437.08c12.272,1.461,19.055,7.289,22.719,14.12C842.385,463.187,839.2,478.262,839.2,478.262Z" transform="translate(-193.136 -203.53)" fill="#1e045c"/>
    <path id="Path_25" data-name="Path 25" d="M826.617,446.6v3.254l-4.643-.45-8.734-9.066S826.752,443.364,826.617,446.6Z" transform="translate(-193.147 -204.215)" stroke="#4c4981" stroke-miterlimit="10" stroke-width="1" opacity="0.1"/>
    <path id="Path_26" data-name="Path 26" d="M845.264,482.031l-3.253-5.37V455C848.446,466.956,845.264,482.031,845.264,482.031Z" transform="translate(-199.197 -207.299)" stroke="#4c4981" stroke-miterlimit="10" stroke-width="1" opacity="0.1"/>
    <ellipse id="Ellipse_9" data-name="Ellipse 9" cx="11.395" cy="20.785" rx="11.395" ry="20.785" transform="translate(555.507 285.309) rotate(-30)" fill="#32058e"/>
    <path id="Path_27" data-name="Path 27" d="M755.08,511.7c5.741,9.942,12.785,16.583,7.336,19.742s-21.322,1.579-27.063-8.371-.529-23.691,4.92-26.849S749.331,501.736,755.08,511.7Z" transform="translate(-176.24 -215.83)" fill="#1e045c"/>
    <path id="Path_28" data-name="Path 28" d="M796.158,411.272c0,31.769-21.74,62.385-53.509,62.385a57.529,57.529,0,0,1,0-115.057C774.418,358.632,796.158,379.5,796.158,411.272Z" transform="translate(-166.201 -187.024)" opacity="0.1"/>
    <circle id="Ellipse_10" data-name="Ellipse 10" cx="57.529" cy="57.529" r="57.529" transform="translate(518.919 170.028)" fill="#ae6e79"/>
    <path id="Path_29" data-name="Path 29" d="M731.191,377.249c6.847,2.519,10.9,9.595,17.041,13.535,8.687,5.528,19.995,4.1,29.913,1.366,5.528-1.508,11.308-3.348,16.749-1.674a4.739,4.739,0,0,0,2.551.363c1.184-.34,1.769-1.65,2.156-2.819,6.728-20.058,3.7-42.777-6.452-61.335-2.622-4.785-5.765-9.413-10.092-12.738a42.1,42.1,0,0,0-11.466-5.788,114.506,114.506,0,0,0-22.806-5.63,14.167,14.167,0,0,0-4.162-.134,17.427,17.427,0,0,0-5.307,2.251,54.315,54.315,0,0,1-23.58,6.4c-11.056.419-23.691-2.187-32.211,4.9-10.266,8.5-7.707,25.1-14.364,36.641-4.406,7.636-12.9,13.18-14.3,21.874a20.193,20.193,0,0,0,.5,7.952c3.253,13.377,16.2,23.738,30.008,23.983a11.388,11.388,0,0,0,6.128-1.256,13.861,13.861,0,0,0,3.23-3.072C703.766,391.369,714.11,370.963,731.191,377.249Z" transform="translate(-159.798 -175.184)" fill="#444053"/>
    <path id="Path_30" data-name="Path 30" d="M799.6,398.237c-.387,1.169-.971,2.48-2.156,2.819a4.738,4.738,0,0,1-2.551-.363c-5.441-1.674-11.253.166-16.741,1.674-9.926,2.732-21.258,4.193-29.913-1.366-6.152-3.948-10.195-11.056-17.049-13.535-17.081-6.318-27.426,14.12-36.491,24.828a13.86,13.86,0,0,1-3.23,3.072,11.388,11.388,0,0,1-6.128,1.256c-13.756-.245-26.715-10.605-30.008-23.983-.182-.79-.34-1.579-.458-2.369a.383.383,0,0,1-.039.205,20.192,20.192,0,0,0,.5,7.952c3.254,13.377,16.212,23.738,30.008,23.983a11.387,11.387,0,0,0,6.128-1.256,13.858,13.858,0,0,0,3.23-3.072c9.066-10.708,19.411-31.114,36.491-24.828,6.854,2.519,10.9,9.595,17.049,13.535,8.687,5.528,19.987,4.1,29.913,1.366,5.528-1.508,11.3-3.348,16.741-1.674a4.739,4.739,0,0,0,2.551.363c1.185-.34,1.769-1.65,2.156-2.819a71.3,71.3,0,0,0,3.538-25.475,70.123,70.123,0,0,1-3.538,19.687Z" transform="translate(-159.792 -191.22)" opacity="0.1"/>
  </g>
</svg>
